<?xml version="1.0" encoding="utf-8"?>
<!-- Generator: Adobe Illustrator 27.0.0, SVG Export Plug-In . SVG Version: 6.00 Build 0)  -->
<svg version="1.2" baseProfile="tiny" id="Layer_1" xmlns="http://www.w3.org/2000/svg" xmlns:xlink="http://www.w3.org/1999/xlink"
	 x="0px" y="0px" viewBox="0 0 279 154.4" overflow="visible" xml:space="preserve">
<path fill="#EE2C24" d="M25.5,19.8h45.3c3.1,0,5.7,2.5,5.7,5.7v103.4c0,3.1-2.5,5.7-5.7,5.7H25.5c-3.1,0-5.7-2.5-5.7-5.7V25.5
	C19.8,22.4,22.4,19.8,25.5,19.8z"/>
<path fill="#EE2C24" d="M273.4,39.8h-6.9V25.5C266.5,11.4,255,0,240.9,0H25.5C11.4,0,0,11.4,0,25.5v103.4
	c0,14.1,11.4,25.5,25.5,25.5h215.4c14.1,0,25.5-11.4,25.5-25.5v-14.3h6.9c3.1,0,5.7-2.5,5.7-5.7V45.5
	C279.1,42.4,276.5,39.8,273.4,39.8z M255.1,128.9c0,7.8-6.4,14.2-14.2,14.2H25.5c-7.8,0-14.2-6.4-14.2-14.2V25.5
	c0-7.8,6.4-14.2,14.2-14.2h215.4c7.8,0,14.2,6.3,14.2,14.2L255.1,128.9L255.1,128.9z"/>
</svg>
