<?xml version="1.0" encoding="utf-8"?>
<!-- Generator: Adobe Illustrator 27.0.0, SVG Export Plug-In . SVG Version: 6.00 Build 0)  -->
<svg version="1.2" baseProfile="tiny" id="Layer_1" xmlns="http://www.w3.org/2000/svg" xmlns:xlink="http://www.w3.org/1999/xlink"
	 x="0px" y="0px" viewBox="0 0 279 154.4" overflow="visible" xml:space="preserve">
<path fill="#46B649" d="M273.4,39.8h-6.9V25.5C266.5,11.4,255,0,240.9,0H25.5C11.4,0,0,11.4,0,25.5v103.4
	c0,14.1,11.4,25.5,25.5,25.5h215.4c14.1,0,25.5-11.4,25.5-25.5v-14.3h6.9c3.1,0,5.7-2.5,5.7-5.7V45.5
	C279.1,42.4,276.5,39.8,273.4,39.8z M255.1,128.9c0,7.8-6.4,14.2-14.2,14.2H25.5c-7.8,0-14.2-6.4-14.2-14.2V25.5
	c0-7.8,6.4-14.2,14.2-14.2h215.4c7.8,0,14.2,6.3,14.2,14.2L255.1,128.9L255.1,128.9z"/>
<path fill="#46B649" d="M212.9,62.6c2.4,0,4.2-1.9,4.2-4.2v-2.3c0-2.3-1.9-4.2-4.2-4.2h-26.2V35.2h-26c-21.4,0-38.7,14.2-38.7,31.8
	v3.9H60.8v12.7h61.2v3.9c0,17.6,17.3,31.8,38.7,31.8h26v-16.6h26.2c2.4,0,4.2-1.9,4.2-4.2V96c0-2.3-1.9-4.2-4.2-4.2h-26.2V62.6
	L212.9,62.6L212.9,62.6z"/>
</svg>
