<?xml version="1.0" encoding="utf-8"?>
<!-- Generator: Adobe Illustrator 26.1.0, SVG Export Plug-In . SVG Version: 6.00 Build 0)  -->
<svg version="1.1" xmlns="http://www.w3.org/2000/svg" xmlns:xlink="http://www.w3.org/1999/xlink" x="0px" y="0px"
	 viewBox="0 0 155.4 155.4" enable-background="new 0 0 155.4 155.4" xml:space="preserve">
<g id="BK" display="none">
	<rect display="inline" fill="#36405B" width="155.4" height="155.4"/>
</g>
<g id="Layer_1">
	<g>
		<path fill="#FF5D4D" d="M134.3,96h9c1.5,0,2.7-1.2,2.7-2.8V62.2c0-1.5-1.2-2.8-2.7-2.8h-8.9L134.3,96z"/>
		<path fill="#FF5D4D" d="M143.3,101.7h-9c-1.5,0-2.9-0.6-4-1.7c-1.1-1.1-1.7-2.5-1.7-4l0-36.6c0-3.1,2.5-5.7,5.7-5.7h8.9
			c2.3,0,4.5,0.9,6.1,2.6c1.5,1.6,2.4,3.8,2.4,6v31C151.7,97.9,147.9,101.7,143.3,101.7z M140,90.4h0.4V65H140L140,90.4z"/>
	</g>
	<g>
		<path fill="#FF5D4D" d="M46,50H25.6c-3.1,0-5.7,2.5-5.7,5.7v44c0,3.1,2.5,5.7,5.7,5.7H46c3.1,0,5.7-2.5,5.7-5.7v-44
			C51.6,52.6,49.1,50,46,50z"/>
		<path fill="#FF5D4D" d="M121.8,34.2h-100c-10,0-18.2,8.1-18.2,18.2V103c0,10,8.1,18.2,18.2,18.2h100c10,0,18.2-8.1,18.2-18.2
			l0-43.6c0,0,0,0,0,0v-7C140,42.4,131.9,34.2,121.8,34.2z M128.7,103c0,3.8-3.1,6.8-6.8,6.8h-100c-3.8,0-6.8-3.1-6.8-6.8V52.4
			c0-3.8,3.1-6.8,6.8-6.8h100c3.8,0,6.9,3.1,6.9,6.8L128.7,103z"/>
	</g>
</g>
</svg>
