<?xml version="1.0" encoding="utf-8"?>
<!-- Generator: Adobe Illustrator 26.1.0, SVG Export Plug-In . SVG Version: 6.00 Build 0)  -->
<svg version="1.1" xmlns="http://www.w3.org/2000/svg" xmlns:xlink="http://www.w3.org/1999/xlink" x="0px" y="0px"
	 viewBox="0 0 155.4 155.4" enable-background="new 0 0 155.4 155.4" xml:space="preserve">
<g id="BK" display="none">
	<rect display="inline" fill="#36405B" width="155.4" height="155.4"/>
</g>
<g id="Layer_1">
	<g>
		<path fill="#5AA35A" d="M84.7,66.1l-10.7,2.2l4.6-12.8c0.2-0.4,0.1-0.9-0.2-1.3c-0.3-0.4-0.7-0.6-1.2-0.6h-12
			c-0.6,0-1.2,0.4-1.4,1.1l-6.7,26.3c-0.1,0.5,0,1,0.4,1.3s0.8,0.5,1.3,0.4l11.7-2.5l-4.3,22.1c-0.1,0.7,0.3,1.4,0.9,1.6
			c0.1,0,0.3,0.1,0.5,0.1c0.5,0,1-0.3,1.3-0.8l17.3-35.1c0.2-0.5,0.2-1.1-0.2-1.5C85.7,66.1,85.2,65.9,84.7,66.1z"/>
		<path fill="#5AA35A" d="M149.4,56.3c-1.6-1.6-3.8-2.6-6.1-2.6H140v-1.3c0-10-8.2-18.2-18.2-18.2h-100c-10,0-18.2,8.1-18.2,18.2
			V103c0,10,8.1,18.2,18.2,18.2h100c10,0,18.2-8.1,18.2-18.2l0-1.3h3.3c4.6,0,8.4-3.8,8.4-8.5v-31C151.8,60,150.9,57.9,149.4,56.3z
			 M121.8,109.9h-100c-3.8,0-6.8-3.1-6.8-6.8V52.4c0-3.8,3.1-6.8,6.8-6.8h100c3.8,0,6.9,3.1,6.9,6.8l0,25.3l0,18.3c0,0,0,0,0,0.1
			l0,6.9C128.7,106.8,125.6,109.9,121.8,109.9z"/>
	</g>
</g>
</svg>
