<?xml version="1.0" encoding="utf-8"?>
<!-- Generator: Adobe Illustrator 26.1.0, SVG Export Plug-In . SVG Version: 6.00 Build 0)  -->
<svg version="1.1" xmlns="http://www.w3.org/2000/svg" xmlns:xlink="http://www.w3.org/1999/xlink" x="0px" y="0px"
	 viewBox="0 0 155.4 155.4" enable-background="new 0 0 155.4 155.4" xml:space="preserve">
<g id="BK" display="none">
	<rect display="inline" fill="#36405B" width="155.4" height="155.4"/>
</g>
<g id="Layer_1">
	<g>
		<path fill="#FFFFFF" d="M118.4,19.5H37c-3.1,0-5.7-2.5-5.7-5.7s2.5-5.7,5.7-5.7h81.3c3.1,0,5.7,2.5,5.7,5.7S121.5,19.5,118.4,19.5
			z"/>
		<path fill="#FFFFFF" d="M129.7,50H25.8c-3.1,0-5.7-2.5-5.7-5.7s2.5-5.7,5.7-5.7h103.8c3.1,0,5.7,2.5,5.7,5.7S132.8,50,129.7,50z"
			/>
		<path fill="#FFFFFF" d="M141.5,147.3H13.9c-3.1,0-5.7-2.5-5.7-5.7v-65c0-3.1,2.5-5.7,5.7-5.7h127.7c3.1,0,5.7,2.5,5.7,5.7v65
			C147.2,144.7,144.7,147.3,141.5,147.3z M19.5,135.9h116.4V82.2H19.5V135.9z"/>
	</g>
</g>
</svg>
