<?xml version="1.0" encoding="utf-8"?>
<!-- Generator: Adobe Illustrator 26.1.0, SVG Export Plug-In . SVG Version: 6.00 Build 0)  -->
<svg version="1.1" xmlns="http://www.w3.org/2000/svg" xmlns:xlink="http://www.w3.org/1999/xlink" x="0px" y="0px"
	 viewBox="0 0 155.4 155.4" enable-background="new 0 0 155.4 155.4" xml:space="preserve">
<g id="BK" display="none">
	<rect display="inline" fill="#36405B" width="155.4" height="155.4"/>
</g>
<g id="Layer_1">
	<g>
		<path fill="#FFFFFF" d="M13.4,54.6c-3.1,0-5.7-2.5-5.7-5.7v-36c0-3.1,2.5-5.7,5.7-5.7h36c3.1,0,5.7,2.5,5.7,5.7s-2.5,5.7-5.7,5.7
			H19v30.3C19,52,16.5,54.6,13.4,54.6z"/>
		<path fill="#FFFFFF" d="M143.2,54.6c-3.1,0-5.7-2.5-5.7-5.7V18.6h-30.3c-3.1,0-5.7-2.5-5.7-5.7s2.5-5.7,5.7-5.7h36
			c3.1,0,5.7,2.5,5.7,5.7v36C148.8,52,146.3,54.6,143.2,54.6z"/>
		<path fill="#FFFFFF" d="M49.3,148.4h-36c-3.1,0-5.7-2.5-5.7-5.7v-36c0-3.1,2.5-5.7,5.7-5.7s5.7,2.5,5.7,5.7v30.3h30.3
			c3.1,0,5.7,2.5,5.7,5.7S52.5,148.4,49.3,148.4z"/>
		<path fill="#FFFFFF" d="M143.2,148.4h-36c-3.1,0-5.7-2.5-5.7-5.7s2.5-5.7,5.7-5.7h30.3v-30.3c0-3.1,2.5-5.7,5.7-5.7
			s5.7,2.5,5.7,5.7v36C148.8,145.9,146.3,148.4,143.2,148.4z"/>
	</g>
</g>
</svg>
