<?xml version="1.0" encoding="utf-8"?>
<!-- Generator: Adobe Illustrator 26.1.0, SVG Export Plug-In . SVG Version: 6.00 Build 0)  -->
<svg version="1.1" xmlns="http://www.w3.org/2000/svg" xmlns:xlink="http://www.w3.org/1999/xlink" x="0px" y="0px"
	 viewBox="0 0 155.4 155.4" enable-background="new 0 0 155.4 155.4" xml:space="preserve">
<g id="BK" display="none">
	<rect display="inline" fill="#36405B" width="155.4" height="155.4"/>
</g>
<g id="Layer_1">
	<path fill="#FFFFFF" d="M126,7.3H29.4c-3.1,0-5.7,2.5-5.7,5.7v129.6c0,2.3,1.4,4.4,3.5,5.2c0.7,0.3,1.4,0.4,2.2,0.4
		c1.5,0,2.9-0.6,4-1.7l44.3-44.6l44.3,44.6c1.6,1.6,4.1,2.1,6.2,1.2c2.1-0.9,3.5-2.9,3.5-5.2V12.9C131.6,9.8,129.1,7.3,126,7.3z
		 M120.3,128.7L81.7,89.9c-1.1-1.1-2.5-1.7-4-1.7s-3,0.6-4,1.7l-38.6,38.9V18.6h85.2V128.7z"/>
</g>
</svg>
