<?xml version="1.0" encoding="utf-8"?>
<!-- Generator: Adobe Illustrator 26.1.0, SVG Export Plug-In . SVG Version: 6.00 Build 0)  -->
<svg version="1.1" xmlns="http://www.w3.org/2000/svg" xmlns:xlink="http://www.w3.org/1999/xlink" x="0px" y="0px"
	 viewBox="0 0 155.4 155.4" enable-background="new 0 0 155.4 155.4" xml:space="preserve">
<g id="BK" display="none">
	<rect display="inline" fill="#36405B" width="155.4" height="155.4"/>
</g>
<g id="Layer_1">
	<path fill="#565656" d="M77.7,150.8c-40,0-72.5-32.5-72.5-72.5c0-40,32.5-72.6,72.5-72.6s72.5,32.5,72.5,72.6
		C150.2,118.2,117.7,150.8,77.7,150.8z M77.7,17c-33.8,0-61.2,27.5-61.2,61.2s27.5,61.2,61.2,61.2s61.2-27.5,61.2-61.2
		S111.5,17,77.7,17z"/>
	<path fill="#FFFFFF" d="M10.8,83.9c-3.1,0-5.7-2.5-5.7-5.7c0-40,32.5-72.6,72.5-72.6c3.1,0,5.7,2.5,5.7,5.7S80.8,17,77.7,17
		c-33.8,0-61.2,27.5-61.2,61.2C16.5,81.3,13.9,83.9,10.8,83.9z"/>
</g>
</svg>
