<?xml version="1.0" encoding="utf-8"?>
<!-- Generator: Adobe Illustrator 26.1.0, SVG Export Plug-In . SVG Version: 6.00 Build 0)  -->
<svg version="1.1" xmlns="http://www.w3.org/2000/svg" xmlns:xlink="http://www.w3.org/1999/xlink" x="0px" y="0px"
	 viewBox="0 0 155.4 155.4" enable-background="new 0 0 155.4 155.4" xml:space="preserve">
<g id="BK" display="none">
	<rect display="inline" fill="#36405B" width="155.4" height="155.4"/>
</g>
<g id="Layer_1">
	<g>
		<path fill="#D8D8D8" d="M59.3,16.4c24,0,43.5,19.5,43.5,43.5s-19.5,43.5-43.5,43.5c-24,0-43.5-19.5-43.5-43.5S35.3,16.4,59.3,16.4
			 M59.3,5.1C29,5.1,4.5,29.6,4.5,59.9c0,30.3,24.5,54.8,54.8,54.8c30.3,0,54.8-24.5,54.8-54.8C114.1,29.6,89.6,5.1,59.3,5.1
			L59.3,5.1z"/>
	</g>
	<g>
		
			<line fill="none" stroke="#D8D8D8" stroke-width="17.0079" stroke-linecap="round" stroke-linejoin="round" stroke-miterlimit="10" x1="96.8" y1="97.3" x2="140.1" y2="140.7"/>
	</g>
	<g>
		<circle fill="#D8D8D8" cx="20.1" cy="136.7" r="6.9"/>
		<circle fill="#D8D8D8" cx="41.9" cy="136.7" r="6.9"/>
		<circle fill="#D8D8D8" cx="63.3" cy="136.7" r="6.9"/>
	</g>
</g>
</svg>
